<svg width="340" height="325" viewBox="0 0 340 325" fill="none" xmlns="http://www.w3.org/2000/svg">
<path d="M2.55916 276.895C-4.58793 250.222 11.2412 222.805 37.9145 215.658L265.894 154.571C292.568 147.424 319.985 163.253 327.132 189.927V189.927C334.279 216.6 318.45 244.017 291.776 251.164L63.7964 312.251C37.1231 319.398 9.70625 303.569 2.55916 276.895V276.895Z" fill="#8C4410"/>
<path fill-rule="evenodd" clip-rule="evenodd" d="M81.8988 325H290C317.614 325 340 302.614 340 275C340 264.011 336.455 253.851 330.447 245.599C321.888 255.954 310.141 263.843 296.176 267.585L81.8988 325ZM17.3041 301.034C12.6703 293.451 10 284.537 10 275C10 247.386 32.3858 225 60 225H290C300.46 225 310.171 228.212 318.198 233.704C311.749 241.949 302.666 248.246 291.776 251.164L63.7964 312.251C46.7841 316.809 29.4694 312.021 17.3041 301.034Z" fill="#8C4410"/>
<path fill-rule="evenodd" clip-rule="evenodd" d="M137.399 6.41888C137.399 51.997 115.541 92.47 81.7355 117.927C61.7727 128.138 50.9379 151.217 56.9756 173.75C58.6756 180.094 61.5555 185.807 65.3161 190.716L261.495 138.15C262.216 137.957 262.938 137.776 263.66 137.608C264.469 131.465 264.108 125.063 262.405 118.705C256.297 95.9119 234.959 81.267 212.273 82.7868C206.208 42.4162 176.249 9.86756 137.254 0C137.351 2.12756 137.399 4.26753 137.399 6.41888Z" fill="#8C4410"/>
</svg>
