<svg width="342" height="326" viewBox="0 0 342 326" fill="none" xmlns="http://www.w3.org/2000/svg">
<path d="M2.57624 279.332C-4.36942 253.411 11.0136 226.766 36.9352 219.821L266.057 158.428C291.979 151.482 318.623 166.865 325.569 192.787C332.514 218.708 317.131 245.352 291.21 252.298L62.0876 313.691C36.166 320.637 9.52191 305.254 2.57624 279.332Z" fill="#8C4410"/>
<path d="M292 325.851H86.2516L295.869 269.685C310.769 265.692 323.129 256.95 331.755 245.523C338.182 253.935 342 264.447 342 275.851C342 303.466 319.614 325.851 292 325.851Z" fill="#8C4410"/>
<path d="M61.5762 173.831C54.6306 147.91 70.0136 121.265 95.9352 114.32L207.494 84.4276C233.416 77.4819 260.06 92.865 267.006 118.787C268.889 125.816 269.131 132.898 267.965 139.627C265.777 139.985 263.586 140.455 261.399 141.041L70.9314 192.076C66.673 186.891 63.426 180.735 61.5762 173.831Z" fill="#8C4410"/>
<path fill-rule="evenodd" clip-rule="evenodd" d="M142 6.5C142 54.8664 117.386 97.4839 80 122.509V149H204.197C212.97 134.032 218 116.603 218 98C218 50.7959 185.617 11.1552 141.855 0.0811157C141.951 2.20868 142 4.34865 142 6.5Z" fill="#8C4410"/>
</svg>
